<?xml version="1.0" encoding="UTF-8"?>
<svg width="1200pt" height="1200pt" version="1.1" viewBox="0 0 1200 1200" xmlns="http://www.w3.org/2000/svg">
 <path d="m940.41 604.26 1.2148-235.38c0.039062-9.207-2.5156-18.238-7.375-26.059l-115.11 90.234c-5.168 4.0352-10.93 7.2383-17.086 9.4922v292.55c2.9805-1.4766 5.8008-3.25 8.4219-5.293l111.09-87.066c11.859-9.25 18.809-23.441 18.844-38.484z"/>
 <path d="m440.64 43.414c-14.07-2.7773-28.648 0.72656-39.922 9.5898l-118.05 92.75c-2.7812 2.1836-5.3203 4.6641-7.5742 7.3906l267.01 47.309c13.773 2.4336 27.93-1.0977 38.945-9.7148l114.76-89.957c-6.5781-5.9297-14.641-9.9688-23.328-11.68z"/>
 <path d="m572.63 211.3v100.27l48.828-38.367h0.003907c15.281-11.969 35.191-16.309 54.07-11.785-1.3164-26.043 15.684-46.938 36.328-60.672l0.32422-63.109c0.039062-9.207-2.5156-18.238-7.375-26.055l-115.09 90.219c-5.168 4.0352-10.934 7.2383-17.09 9.5z"/>
 <path d="m263.85 188.59 215.05 42.363h0.003906c14.43 2.8594 27.418 10.652 36.734 22.039 9.3125 11.391 14.375 25.664 14.312 40.375l-0.26172 51.945 28.883-22.691v-107.9c-6.2891 0.84375-12.672 0.70312-18.918-0.41406l-272.23-48.242c-2.7734 7.1719-3.9883 14.848-3.5703 22.523z"/>
 <path d="m630.15 284.26-118.04 92.75c-2.7812 2.1836-5.3203 4.6641-7.5742 7.3906l266.99 47.32c13.773 2.4375 27.93-1.0977 38.941-9.7188l114.77-89.965c-6.5742-5.9297-14.637-9.9688-23.324-11.684l-231.84-45.684c-14.07-2.7734-28.652 0.72656-39.93 9.5898z"/>
 <path d="m700.84 228.75 267 47.312c13.77 2.4336 27.93-1.1016 38.941-9.7227l114.77-89.969 0.003906 0.003906c-6.5781-5.9297-14.637-9.9648-23.324-11.684l-231.85-45.684c-14.07-2.7773-28.648 0.72656-39.918 9.5898l-118.05 92.75c-2.7812 2.1914-5.3203 4.6719-7.5703 7.4023z"/>
 <path d="m787.99 739.62v-293.65c-6.2891 0.84375-12.676 0.70312-18.922-0.41797l-272.23-48.238c-2.332 5.8086-3.5352 12.004-3.5469 18.262l-0.60937 233.3v0.003906c0.11719 11.527 4.2344 22.66 11.645 31.496 7.4102 8.832 17.652 14.824 28.988 16.949l238.21 42.211h-0.003906c5.4453 0.95703 11.016 0.98438 16.469 0.085938z"/>
 <path d="m967.83 583.88c5.4453 0.95703 11.012 0.98438 16.469 0.085938v-293.65c-6.293 0.84375-12.676 0.70312-18.922-0.41797l-272.23-48.238c-2.7695 7.1719-3.9805 14.848-3.5586 22.523l215.05 42.363c14.434 2.8594 27.422 10.652 36.734 22.039 9.3164 11.391 14.375 25.664 14.316 40.379l-1.0977 212.58z"/>
 <path d="m204.41 208.66-118.05 92.742c-2.7812 2.1875-5.3203 4.6641-7.5742 7.3906l267 47.309h0.003907c13.77 2.4375 27.93-1.0938 38.941-9.7148l114.77-89.965c-6.5781-5.9297-14.637-9.9688-23.324-11.684l-231.85-45.668c-14.07-2.7734-28.648 0.72656-39.922 9.5898z"/>
 <path d="m478.75 598.4-51.766 40.574 51.645 10.172c-0.035156-0.20703 0.13281-50.5 0.12109-50.746z"/>
 <path d="m529.69 763.56 54.621-42.914c-1.2656-0.26562-53.203-9.3438-54.375-9.6758 0.074218 0.82812-0.27734 51.777-0.24609 52.59z"/>
 <path d="m1117.9 905.34c11.863-9.2461 18.82-23.438 18.859-38.48l1.2109-235.38c0.039062-9.2031-2.5156-18.23-7.3711-26.051l-115.1 90.234c-5.1719 4.0352-10.938 7.2383-17.094 9.4961v292.54c2.9805-1.4766 5.8008-3.25 8.4219-5.2969z"/>
 <path d="m67.555 339.99-0.60938 233.3v-0.003907c-0.007812 11.566 4.0625 22.762 11.492 31.625 7.4336 8.8594 17.75 14.816 29.141 16.82l238.21 42.211c5.4453 0.95703 11.012 0.98828 16.465 0.089844v-293.66c-6.2891 0.84375-12.672 0.70312-18.918-0.41406l-272.23-48.242c-2.332 5.8086-3.5391 12.008-3.5508 18.266z"/>
 <path d="m967.83 1002.1c5.4453 0.95312 11.012 0.98438 16.469 0.089844v-293.65c-6.2891 0.84375-12.672 0.70312-18.918-0.41797l-85.207-15.102-27.461 21.523 51.918 10.227v0.003906c14.434 2.8555 27.418 10.648 36.734 22.035 9.3164 11.391 14.375 25.664 14.316 40.375l-1.0977 212.58z"/>
 <path d="m1136.7 448.59 1.2109-235.38c0.039062-9.207-2.5156-18.238-7.3711-26.059l-115.11 90.234c-5.168 4.0312-10.934 7.2344-17.086 9.4922v292.56c2.9805-1.4766 5.8008-3.25 8.4219-5.293l111.07-87.066c11.867-9.2539 18.82-23.445 18.855-38.492z"/>
 <path d="m1006.8 684.58 114.77-89.973c-6.5781-5.9297-14.641-9.9688-23.328-11.688l-63.812-12.57-18.965 14.863c-17.219 14.039-40.133 15.828-60.938 10.574 1.2109 22.953-5.8242 43.543-24.289 58.016l-35.188 27.582 72.801 12.906h0.003907c13.77 2.4414 27.93-1.0898 38.941-9.7109z"/>
 <path d="m107.58 1040 238.21 42.207v0.003906c5.4453 0.95703 11.012 0.98828 16.465 0.089844v-293.65c-6.2891 0.84375-12.672 0.70313-18.918-0.41797l-272.23-48.238c-2.332 5.8047-3.5352 12.004-3.5508 18.262l-0.60938 233.3c-0.007812 11.566 4.0625 22.762 11.492 31.625 7.4336 8.8594 17.75 14.816 29.141 16.82z"/>
 <path d="m940.41 1022.5 1.2148-235.38c0.039062-9.207-2.5195-18.234-7.375-26.055l-115.11 90.234c-5.168 4.0312-10.934 7.2344-17.086 9.4922v292.55c2.9805-1.4766 5.8008-3.25 8.4219-5.293l111.09-87.07c11.859-9.25 18.809-23.441 18.844-38.48z"/>
 <path d="m479.23 833.79c-0.003906-19.371 8.918-37.668 24.184-49.594l12.148-9.5469s0.23438-66.531 0.054687-68.242h0.003907c-6.6836-3.0391-12.781-7.2266-18.02-12.363l-104.19 81.672v-0.003906c-5.168 4.0352-10.934 7.2344-17.09 9.4922v292.55c0.63672 2.1094 99.512-77.184 102.47-79.016z"/>
 <path d="m533.31 1115.6 238.21 42.211h-0.003906c5.4453 0.95703 11.016 0.98438 16.469 0.085938v-293.65c-6.2891 0.83984-12.676 0.69922-18.922-0.41797l-272.23-48.238c-2.332 5.8047-3.5352 12.004-3.5469 18.262l-0.60937 233.3c-0.007813 11.562 4.0586 22.762 11.492 31.621 7.4297 8.8594 17.75 14.816 29.141 16.82z"/>
 <path d="m343.34 677.79-166.2-29.449c-2.2695 2.2578-100.97 78.008-98.348 78.715l267 47.316c13.77 2.4336 27.926-1.0977 38.941-9.7188l104-81.523v0.003907c-3.7734-5.8477-6.5547-12.281-8.2266-19.039-1.4492-0.42969-68.137-13.656-68.137-13.656l-18.961 14.863v-0.003907c-14.172 11.059-32.363 15.598-50.07 12.492z"/>
 <path d="m60.234 660c-1.8672 0-3.6602 0.74219-4.9805 2.0664-1.3203 1.3242-2.0586 3.1211-2.0508 4.9883l0.15625 46.875c0.011719 3.8828 3.168 7.0195 7.0508 7.0078 1.8672-0.003906 3.6523-0.75 4.9648-2.0742 1.3164-1.3242 2.0508-3.1133 2.0469-4.9766l-0.15625-46.875c-0.011719-3.875-3.1562-7.0117-7.0312-7.0117z"/>
 <path d="m60.07 635.1c1.8672 0 3.6602-0.74219 4.9805-2.0664 1.3164-1.3242 2.0547-3.1172 2.0508-4.9844l-0.15625-17.516c-0.011718-3.8828-3.168-7.0234-7.0547-7.0078-3.8828 0.011718-7.0195 3.1719-7.0078 7.0547l0.15625 17.512c0.011719 3.875 3.1562 7.0078 7.0312 7.0078z"/>
 <path d="m810.47 840.23 114.77-89.965c-6.5742-5.9297-14.633-9.9688-23.32-11.684l-63.812-12.57-18.965 14.863h0.003906c-5.168 4.0352-10.934 7.2422-17.086 9.5078v41.777c0 3.8828-3.1484 7.0312-7.0312 7.0312-3.8867 0-7.0312-3.1484-7.0312-7.0312v-38.336c-6.293 0.80859-12.672 0.65625-18.922-0.44531l-166.2-29.449c-2.2773 2.2656-100.96 77.996-98.348 78.715l267 47.312c5.4453 0.96094 11.012 0.99219 16.469 0.10156v-11.016c0-3.8828 3.1484-7.0312 7.0312-7.0312 3.8828 0 7.0312 3.1484 7.0312 7.0312v6.5039c2.9766-1.4844 5.7969-3.2656 8.4141-5.3164z"/>
 <path d="m459.54 1114.3 32.723 6.8516v-0.003906c1.8281 0.40625 3.7461 0.0625 5.3203-0.95312 1.5781-1.0156 2.6836-2.6172 3.0703-4.4492 0.39062-1.8359 0.03125-3.75-0.99609-5.3164s-2.6406-2.6602-4.4766-3.0352l-32.723-6.8516h0.003907c-1.832-0.40234-3.75-0.058594-5.3242 0.95703-1.5742 1.0117-2.6797 2.6172-3.0703 4.4492-0.39062 1.8359-0.03125 3.7461 0.99609 5.3164 1.0273 1.5664 2.6406 2.6602 4.4766 3.0352z"/>
 <path d="m374.62 1096.8 39.062 7.7148c1.832 0.40234 3.7461 0.058594 5.3242-0.95703 1.5742-1.0117 2.6797-2.6172 3.0703-4.4492 0.38672-1.8359 0.027344-3.7461-1-5.3164-1.0273-1.5664-2.6367-2.6602-4.4727-3.0352l-39.062-7.7148v0.003906c-3.7852-0.77344-7.4805 1.6523-8.2812 5.4297-0.80469 3.7773 1.5898 7.4922 5.3594 8.3242z"/>
 <path d="m393.41 357.46c-5.168 4.0312-10.934 7.2344-17.09 9.4922v292.55c0.63672 2.1094 99.516-77.188 102.47-79.016l0.42969-164.95 0.003906-0.003906c0.011719-7.0898 1.2109-14.125 3.5508-20.82-0.33594-0.003906-0.67188-0.035156-1.0039-0.089844l-46.148-8.2227c-3.8242-0.68359-6.3672-4.332-5.6875-8.1562 0.67969-3.8242 4.332-6.3711 8.1562-5.6875l46.148 8.2227c1.5664 0.28516 2.9844 1.0977 4.0234 2.3008 3.9688-6.5859 9.0977-12.395 15.145-17.141l12.148-9.5469 0.32422-63.109h0.003907c0.039062-9.207-2.5156-18.238-7.3711-26.055z"/>
 <path d="m811.75 110.59c3.8398 0.58984 7.4297-2.0391 8.0234-5.8789 0.59375-3.8359-2.0391-7.4297-5.8789-8.0195l-46.32-7.1562c-3.8398-0.59375-7.4297 2.0391-8.0234 5.875-0.59375 3.8398 2.0391 7.4297 5.875 8.0234z"/>
 <path d="m721.25 82.391-16.359-2.5547c-3.8359-0.59375-7.4297 2.0391-8.0195 5.875-0.59375 3.8398 2.0391 7.4297 5.875 8.0234l16.359 2.5547c3.8398 0.58984 7.4297-2.0391 8.0234-5.8789 0.58984-3.8359-2.0391-7.4297-5.8789-8.0195z"/>
 <path d="m253.16 151.46-15.77 12.656c-3.0273 2.4297-3.5078 6.8555-1.0742 9.8828s6.8594 3.5117 9.8867 1.0781l15.77-12.656h-0.003906c3.0273-2.4336 3.5117-6.8594 1.0781-9.8867s-6.8594-3.5078-9.8867-1.0742z"/>
 <path d="m979 1032.8 18.281-16.035c3-2.4414 3.4648-6.8477 1.0391-9.8633-2.4258-3.0117-6.832-3.5-9.8555-1.0898l-18.281 16.035v-0.003906c-3 2.4414-3.4648 6.8477-1.0391 9.8633 2.4258 3.0117 6.8281 3.5 9.8555 1.0938z"/>
 <path d="m1152 490.89c0-3.8867-3.1484-7.0312-7.0312-7.0312-3.8867 0-7.0312 3.1445-7.0312 7.0312v46.875c0 3.8828 3.1445 7.0312 7.0312 7.0312 3.8828 0 7.0312-3.1484 7.0312-7.0312z"/>
 <path d="m1152 599v-19.113c0-3.8828-3.1484-7.0312-7.0312-7.0312-3.8867 0-7.0312 3.1484-7.0312 7.0312v19.113c0 3.8828 3.1445 7.0312 7.0312 7.0312 3.8828 0 7.0312-3.1484 7.0312-7.0312z"/>
</svg>
